<svg xmlns="http://www.w3.org/2000/svg" width="1600" height="900" viewBox="0 0 1600 900">
<defs>
  <linearGradient id="bg" x1="0" y1="0" x2="1" y2="1">
    <stop offset="0%" stop-color="#0b1020"/>
    <stop offset="40%" stop-color="#0b1f3b"/>
    <stop offset="100%" stop-color="#2a0a3b"/>
  </linearGradient>
  <radialGradient id="glow1" cx="30%" cy="40%" r="60%">
    <stop offset="0%" stop-color="#22d3ee" stop-opacity="0.35"/>
    <stop offset="100%" stop-color="#22d3ee" stop-opacity="0"/>
  </radialGradient>
  <radialGradient id="glow2" cx="70%" cy="30%" r="70%">
    <stop offset="0%" stop-color="#a78bfa" stop-opacity="0.35"/>
    <stop offset="100%" stop-color="#a78bfa" stop-opacity="0"/>
  </radialGradient>
  <filter id="blur">
    <feGaussianBlur stdDeviation="40"/>
  </filter>
</defs>
<rect width="1600" height="900" fill="url(#bg)"/>
<circle cx="430" cy="420" r="420" fill="url(#glow1)"/>
<circle cx="1170" cy="320" r="520" fill="url(#glow2)"/>
<g filter="url(#blur)" opacity="0.9">
  <path d="M-50,700 C260,540 380,860 670,720 C970,570 1070,740 1340,640 C1530,570 1660,640 1700,690 L1700,980 L-50,980 Z" fill="#0ea5e9" opacity="0.10"/>
  <path d="M-50,760 C240,640 420,840 690,780 C980,720 1140,820 1400,740 C1560,690 1660,720 1700,760 L1700,980 L-50,980 Z" fill="#a78bfa" opacity="0.10"/>
</g>
<g opacity="0.22">
  <g fill="none" stroke="#ffffff" stroke-width="1">
    <path d="M120 170 C360 120 540 220 780 170 C980 130 1180 220 1380 160" opacity="0.45"/>
    <path d="M190 260 C410 210 600 300 820 250 C1010 210 1230 300 1470 240" opacity="0.35"/>
    <path d="M130 350 C380 300 570 390 820 340 C1050 290 1240 390 1460 330" opacity="0.25"/>
  </g>
</g>
</svg>
